# xmcd CD database file generated by Grip 3.2.0
# 
# Track frame offsets:
#       150
#       32925
#       57556
#       89333
#       126504
#       134272
#       176345
#       211723
#       251023
#       267536
#       271646
# 
# Disc length: 3873 seconds
# 
# Revision: 1
# Processed by: cddbd v1.5.2PL0 Copyright (c) Steve Scherf et al.
# Submitted via: Grip 3.2.0
# 
DISCID=a20f1f0b
DTITLE=Overstreet - Twentythree
DYEAR=2003
DGENRE=House
TTITLE0=Feels So Good
TTITLE1=Lose Yourself
TTITLE2=O Branco
TTITLE3=Overture
TTITLE4=Tia Flo
TTITLE5=Sapatos
TTITLE6=Cream Tease
TTITLE7=Jazz Cigarette
TTITLE8=Sit Back
TTITLE9=Tio Len
TTITLE10=Reasons
EXTD=YEAR: 2003
EXTT0=
EXTT1=
EXTT2=
EXTT3=
EXTT4=
EXTT5=
EXTT6=
EXTT7=
EXTT8=
EXTT9=
EXTT10=
PLAYORDER=
